# xmcd
#
# Track frame offsets: 
#        150
#        16420
#        42615
#        64285
#        86977
#        108922
#        128840
#        152317
#        172527
#        195947
#
# Disc length: 2894 seconds
#
# Revision: 8
# Processed by: cddbd v1.5.2PL0 Copyright (c) Steve Scherf et al.
# Submitted via: ExactAudioCopyFreeDBPlugin 1.0
#
DISCID=750b4c0a
DTITLE=張惠妹 - 妹力新世紀 1996-2000 BEST A-MEI
DYEAR=1999
DGENRE=Pop
TTITLE0=我要飛 (雪碧2000年廣告主題曲）
TTITLE1=愛，永遠不會消失
TTITLE2=一想到你呀
TTITLE3=最愛的人傷我最深
TTITLE4=不要騙我
TTITLE5=牽手
TTITLE6=愛到不能收
TTITLE7=一個人跳舞
TTITLE8=對愛投降
TTITLE9=解脫
EXTD=Label: hat ART CD 6108\nRecording date: 22 December 1984\nProduce
EXTD=r: Pipe Records, Pia and Werner X. Uehlinger\nLiner notes: Robert B
EXTD=ilek\nNotes: Recorded live at Ensembletheater Treffpunkt\n     Pe
EXTD=tersplatz, Vienna, Austria.  All compositions by\n     Franz Kogl
EXTD=mann.\nPerformers:\nPipetet:\nFranz Koglmann - fluglhorn, trumpet
EXTD=\nTheo Jörgensmann - clarinet\nRoberto Ottaviano - soprano saxoph
EXTD=one\nGeorg Lehner - oboe\nErich Saufnauer - French horn\nRudolf R
EXTD=uschel - trombone\nRaoul Herget - tuba\nRobert Michael Weiss - pi
EXTD=ano\nKlaus Koch - bass\nPeter Barborik - drums YEAR: 1999
EXTT0=Written by Jon Brion\n(c) 1999 New Line Productions, Inc.
EXTT1=Written and composed by: Luis Bacalov\n\n
EXTT2=Written and composed by: Luis Bacalov\n\n
EXTT3=Written and composed by: Luis Bacalov\n\n
EXTT4=Prints' Nilskiy\nBlanche\nMarkiz\nGeneral\nAleksey\nPolina
EXTT5=Written and composed by: Luis Bacalov\n\n
EXTT6=General\nPotapïch
EXTT7=Ìàð³ÿ Áóðìàêà, Áîãäàí-²ãîð Àíòîíè÷\n
EXTT8=Diana Ross and The Supremes
EXTT9=1-y Krup'e\nAleksey\nGoryachiy Igrok\nNeudachlivïy Igrok\nStarïy
EXTT9=Igrok\nBoleznennïy Igrok\n3-y Igrok\nDama tak Sebe\nUvazhayemay
EXTT9=a Dama\nTolstïy Anglichanin\nBlednaya Dama\nDlinnïy Anglichanin\n
EXTT9=Gorbatïy Igrok\nSomnitel'naya Starushka\n1-y Igrok\n5-y Igrok\nP
EXTT9=estraya Dama\n6-y Igrok\n6 Igrokov
PLAYORDER=
